<svg width="33" height="28" viewBox="0 0 33 28" fill="none" xmlns="http://www.w3.org/2000/svg">
<path d="M19.2631 16.0881H13.7405C13.6798 16.0881 13.6247 16.1265 13.6027 16.1814L8.41073 27.2544C8.37215 27.3531 8.4438 27.4573 8.54852 27.4518H24.444C24.5487 27.4518 24.6149 27.3421 24.5818 27.2489L19.3899 16.1759C19.3733 16.1265 19.3182 16.0881 19.2631 16.0881Z" fill="#57D6FF"/>
<path d="M8.48253 24.2982L12.9855 14.7663C12.9965 14.7389 13.0021 14.7059 12.991 14.673L6.4763 0.770089C6.43221 0.605557 6.1897 0.627495 6.1897 0.802996L8.20695 24.2433C8.19592 24.3969 8.4219 24.4462 8.48253 24.2982Z" fill="#57D6FF"/>
<path d="M0.407926 9.26549L4.65738 0.0626718C4.74556 -0.057985 4.92745 0.00782761 4.92194 0.155906L7.15965 25.6255C7.15414 25.779 6.93919 25.8229 6.87856 25.6803L0.159903 11.3221C-0.121189 10.6421 -0.0274918 9.86329 0.407926 9.26549Z" fill="#57D6FF"/>
<path d="M24.7969 24.2434L26.8142 0.803081C26.8142 0.633064 26.5717 0.605642 26.5276 0.770174L20.0128 14.6731C20.0018 14.706 20.0073 14.7389 20.0184 14.7664L24.5213 24.2982C24.582 24.4463 24.8079 24.397 24.7969 24.2434Z" fill="#57D6FF"/>
<path d="M32.8384 11.3222L26.1197 25.6803C26.0591 25.8284 25.8441 25.7845 25.8386 25.6255L28.0763 0.155922C28.0708 0.00784303 28.2527 -0.0524852 28.3409 0.0626872L32.5959 9.26551C33.0313 9.86331 33.1195 10.6421 32.8384 11.3222Z" fill="#57D6FF"/>
</svg>
